<svg xmlns="http://www.w3.org/2000/svg" xmlns:xlink="http://www.w3.org/1999/xlink" width="27.41" height="27.41" viewBox="0 0 27.41 27.41"><defs><style>.a{fill:#bccad3;}.b{clip-path:url(#a);}.c{fill:#a1474d;}</style><clipPath id="a"><circle class="a" cx="13.705" cy="13.705" r="13.705" transform="translate(83.086 226.5)"/></clipPath></defs><g class="b" transform="translate(-83.086 -226.5)"><g transform="translate(85.646 232.788)"><path class="c" d="M20.33,2.193H1.959A1.961,1.961,0,0,0,0,4.152v6.53a1.961,1.961,0,0,0,1.959,1.959H20.33a1.961,1.961,0,0,0,1.959-1.959V4.152A1.961,1.961,0,0,0,20.33,2.193ZM16.412,6.111a.653.653,0,1,1-.653.653A.653.653,0,0,1,16.412,6.111Zm2.612,3.918H3.265a.653.653,0,0,1,0-1.306H19.024a.653.653,0,1,1,0,1.306Zm0-2.612a.653.653,0,1,1,.653-.653A.653.653,0,0,1,19.024,7.417Z"/></g></g></svg>