<svg xmlns="http://www.w3.org/2000/svg" width="58.017" height="61.733" viewBox="0 0 58.017 61.733"><defs><style>.a,.b{fill:none;}.a,.c{stroke:#75b02e;}.a{stroke-width:2.2px;}.c{fill:#75b02e;stroke-width:0.5px;}.d,.e{stroke:none;}.e{fill:#75b02e;}</style></defs><g transform="translate(-15139.9 -1898.9)"><g transform="translate(15110 1900)"><g transform="translate(41.465)"><path class="a" d="M136.7,0a15.7,15.7,0,1,0,15.7,15.7A15.715,15.715,0,0,0,136.7,0Z" transform="translate(-121)"/></g><g transform="translate(31 34.883)"><path class="a" d="M76.692,306.767A22.377,22.377,0,0,0,60.65,300H53.674a22.377,22.377,0,0,0-16.042,6.767A22.876,22.876,0,0,0,31,322.906a1.744,1.744,0,0,0,1.744,1.744H81.58a1.744,1.744,0,0,0,1.744-1.744A22.876,22.876,0,0,0,76.692,306.767Z" transform="translate(-31 -300)"/></g></g><g transform="translate(15182.73 1921.957)"><g class="b"><path class="d" d="M7.593,0a7.593,7.593,0,0,1,7.593,7.593v.434A7.593,7.593,0,1,1,0,8.027V7.593A7.593,7.593,0,0,1,7.593,0Z"/><path class="e" d="M 7.593165397644043 1.500002861022949 C 4.233375549316406 1.500002861022949 1.499995231628418 4.233383178710938 1.499995231628418 7.593162536621094 L 1.499995231628418 8.027063369750977 C 1.499995231628418 11.38684272766113 4.233375549316406 14.12022304534912 7.593165397644043 14.12022304534912 C 10.95295524597168 14.12022304534912 13.68633556365967 11.38684272766113 13.68633556365967 8.027063369750977 L 13.68633556365967 7.593162536621094 C 13.68633556365967 4.233383178710938 10.95295524597168 1.500002861022949 7.593165397644043 1.500002861022949 M 7.593165397644043 2.86102294921875e-06 C 11.78675556182861 2.86102294921875e-06 15.18633556365967 3.39957332611084 15.18633556365967 7.593162536621094 L 15.18633556365967 8.027063369750977 C 15.18633556365967 12.22065353393555 11.78675556182861 15.62022304534912 7.593165397644043 15.62022304534912 C 3.399575233459473 15.62022304534912 -4.76837158203125e-06 12.22065353393555 -4.76837158203125e-06 8.027063369750977 L -4.76837158203125e-06 7.593162536621094 C -4.76837158203125e-06 3.39957332611084 3.399575233459473 2.86102294921875e-06 7.593165397644043 2.86102294921875e-06 Z"/></g><g transform="translate(7.536 4.171) rotate(45)"><path class="c" d="M2.933,2.566h0A.365.365,0,0,0,2.821,2.3h0L.621.1h0A.366.366,0,1,0,.128.645L2.049,2.565.1,4.511h0a.367.367,0,0,0,.518.518h0l2.2-2.2h0a.365.365,0,0,0,.112-.264Z" transform="translate(0 0)"/><path class="c" d="M0,2.566H0A.365.365,0,0,1,.112,2.3h0L2.312.1h0a.366.366,0,1,1,.492.543L.884,2.565,2.83,4.511h0a.367.367,0,0,1-.518.518h0l-2.2-2.2h0A.365.365,0,0,1,0,2.566Z" transform="translate(2.228 0)"/></g></g></g></svg>