<svg xmlns="http://www.w3.org/2000/svg" xmlns:xlink="http://www.w3.org/1999/xlink" width="28.41" height="28.41" viewBox="0 0 28.41 28.41"><defs><style>.a{fill:#bccad3;}.b{clip-path:url(#a);}.c{fill:#a06d4b;}.d{fill:#ffc261;}</style><clipPath id="a"><circle class="a" cx="14.205" cy="14.205" r="14.205" transform="translate(82.586 225)"/></clipPath></defs><g class="b" transform="translate(-82.586 -225)"><g transform="translate(83.586 228)"><path class="c" d="M20.119,10.294V8.629H1.43v4.161A11.415,11.415,0,0,0,5.8,22h9.911a10.123,10.123,0,0,0,1.8-1.665H19.4c2.76,0,5.006-2.614,5.006-5.826V10.294Zm2.861,4.217A3.907,3.907,0,0,1,19.4,18.672h-.778a12.2,12.2,0,0,0,1.493-5.881v-.832H22.98Z"/><path class="d" d="M7.631,0,6.838,1.19a1,1,0,0,1,0,1.671,2.434,2.434,0,0,0,0,4.051l.793-1.19a1,1,0,0,1,0-1.671A2.434,2.434,0,0,0,7.631,0Z"/><path class="d" d="M11.207,0l-.793,1.19a1,1,0,0,1,0,1.671,2.434,2.434,0,0,0,0,4.051l.793-1.19a1,1,0,0,1,0-1.671,2.434,2.434,0,0,0,0-4.051Z"/><path class="d" d="M14.783,0l-.793,1.19a1,1,0,0,1,0,1.671,2.434,2.434,0,0,0,0,4.051l.793-1.19a1,1,0,0,1,0-1.671,2.434,2.434,0,0,0,0-4.051Z"/></g></g></svg>