<svg xmlns="http://www.w3.org/2000/svg" width="19.984" height="20.73" viewBox="0 0 19.984 20.73"><g transform="translate(-7.804)"><g transform="translate(7.804)"><g transform="translate(0)"><path d="M26.015,2.249q-.064,0-.127,0h-1.6V.874A.971.971,0,0,0,23.215,0H21.742a.86.86,0,0,0-.949.874V2.248H14.8V.874A.86.86,0,0,0,13.849,0H12.376A.971.971,0,0,0,11.3.874V2.248H9.7a1.848,1.848,0,0,0-1.9,1.8q0,.064,0,.127V18.607A2.032,2.032,0,0,0,9.7,20.73H25.888a2.032,2.032,0,0,0,1.9-2.123V4.171A1.848,1.848,0,0,0,26.015,2.249ZM21.742,1H23.29V3.746H21.742ZM12.376,1H13.8V3.746H12.376V1ZM26.787,18.607a1.038,1.038,0,0,1-.9,1.124H9.7a1.038,1.038,0,0,1-.9-1.124V7.992H26.787V18.607Zm0-14.436V6.993H8.8V4.171a.849.849,0,0,1,.9-.924h1.6V3.8a1.028,1.028,0,0,0,1.074.949h1.474a.924.924,0,0,0,.949-.9q0-.025,0-.051v-.55h5.994V3.8a.924.924,0,0,0,.9.949h1.524A1.028,1.028,0,0,0,24.289,3.8V3.247h1.6a.849.849,0,0,1,.9.924Z" transform="translate(-7.804)"/><path d="M119.6,199.728l-.45,2.5a.5.5,0,0,0,.724.524l2.248-1.174,2.248,1.174.225.05a.474.474,0,0,0,.3-.1.5.5,0,0,0,.2-.475l-.45-2.5,1.823-1.748a.549.549,0,0,0,.125-.524.525.525,0,0,0-.4-.325l-2.5-.375-1.124-2.273a.5.5,0,0,0-.9,0l-1.124,2.273-2.5.375a.525.525,0,0,0-.4.325.549.549,0,0,0,.125.524Zm1.374-2.023a.449.449,0,0,0,.35-.275l.8-1.6.8,1.6a.45.45,0,0,0,.35.275l1.773.25-1.274,1.224a.525.525,0,0,0-.15.45l.3,1.773-1.573-.849-.225-.05-.225.05-1.573.849.3-1.773a.524.524,0,0,0-.15-.45l-1.274-1.224Z" transform="translate(-112.378 -184.917)"/></g></g></g></svg>