<svg xmlns="http://www.w3.org/2000/svg" width="25.575" height="25.52" viewBox="0 0 25.575 25.52"><defs><style>.a{stroke:#ebebeb;stroke-width:0.5px;}</style></defs><path class="a" d="M10.759,3.538,7.7,3.35,6.571.495a.781.781,0,0,0-1.454,0L3.992,3.35.929,3.538A.781.781,0,0,0,.48,4.92L2.848,6.872,2.079,9.843a.781.781,0,0,0,1.176.855L5.844,9.049,8.432,10.7a.781.781,0,0,0,1.176-.855L8.84,6.872,11.208,4.92a.781.781,0,0,0-.449-1.383Zm-3.3,2.446a.781.781,0,0,0-.259.8l.4,1.533L6.264,7.464a.781.781,0,0,0-.839,0l-1.335.851.4-1.533a.781.781,0,0,0-.259-.8L3,4.976l1.58-.1a.781.781,0,0,0,.679-.493l.58-1.473.58,1.473a.781.781,0,0,0,.679.493l1.58.1Zm3.1,11.735L7.5,17.531,6.374,14.676a.781.781,0,0,0-1.454,0L3.795,17.531l-3.063.188A.781.781,0,0,0,.283,19.1L2.65,21.053l-.768,2.971a.781.781,0,0,0,1.176.855L5.647,23.23l2.588,1.649a.781.781,0,0,0,1.176-.854l-.768-2.971L11.011,19.1a.781.781,0,0,0-.449-1.383Zm-3.3,2.446a.781.781,0,0,0-.259.8L7.4,22.5l-1.336-.851a.781.781,0,0,0-.839,0L3.891,22.5l.4-1.533a.781.781,0,0,0-.259-.8L2.807,19.157l1.58-.1a.781.781,0,0,0,.679-.493l.58-1.473.58,1.473a.781.781,0,0,0,.679.493l1.58.1ZM14.929,6.3a.781.781,0,0,1,1.1-1.1l2.132,2.132,5.5-5.5a.781.781,0,0,1,1.1,1.1L18.718,8.989a.781.781,0,0,1-1.1,0ZM25,19.591a.781.781,0,0,1-.781.781h-8.87a.781.781,0,1,1,0-1.563h8.87A.781.781,0,0,1,25,19.591Z" transform="translate(0.263 0.25)"/></svg>