<svg xmlns="http://www.w3.org/2000/svg" width="22.259" height="22.259" viewBox="0 0 22.259 22.259"><g transform="translate(-2414.289 545.061)"><path d="M189.38,158.434a.731.731,0,0,0-.263-.009,1.745,1.745,0,0,1-1.543-1.73.767.767,0,1,0-1.535,0,3.283,3.283,0,0,0,2.414,3.161v.768a.767.767,0,1,0,1.535,0V159.9a3.277,3.277,0,0,0-.672-6.485,1.743,1.743,0,1,1,1.743-1.743.768.768,0,0,0,1.535,0,3.284,3.284,0,0,0-2.606-3.208v-.7a.767.767,0,1,0-1.535,0v.745a3.277,3.277,0,0,0,.863,6.439,1.742,1.742,0,0,1,.064,3.482Zm0,0" transform="translate(2236.103 -688.136)"/><path d="M104.195,117.622a11.13,11.13,0,1,0,11.13-11.13A11.129,11.129,0,0,0,104.195,117.622Zm11.13-9.595a9.595,9.595,0,1,1-9.595,9.595A9.594,9.594,0,0,1,115.325,108.027Zm0,0" transform="translate(2310.094 -651.553)"/></g></svg>