<svg xmlns="http://www.w3.org/2000/svg" xmlns:xlink="http://www.w3.org/1999/xlink" width="27.41" height="27.41" viewBox="0 0 27.41 27.41"><defs><style>.a{fill:#bccad3;}.b{clip-path:url(#a);}.c{fill:#e94444;}.d{fill:#fe9738;}</style><clipPath id="a"><circle class="a" cx="13.705" cy="13.705" r="13.705" transform="translate(83.086 226.5)"/></clipPath></defs><g class="b" transform="translate(-83.086 -226.5)"><g transform="translate(85.607 229.587)"><g transform="translate(4.351)"><path class="c" d="M11.294,5.73l-.8-5.353A.441.441,0,0,0,10.054,0h-.015a.44.44,0,0,0-.426.405L9.226,5.053c-.024.287-.533.287-.557,0L8.282.405a.442.442,0,0,0-.881,0L7.014,5.053c-.024.287-.533.287-.557,0L6.07.405A.443.443,0,0,0,5.644,0H5.63a.441.441,0,0,0-.437.377L4.39,5.73A3.461,3.461,0,0,0,6.44,9.425L5.757,19A2.089,2.089,0,0,0,7.84,21.236h0A2.089,2.089,0,0,0,9.927,19L9.244,9.425A3.461,3.461,0,0,0,11.294,5.73Z" transform="translate(-4.351)"/></g><g transform="translate(13.593 0.001)"><path class="d" d="M19.211.082a.444.444,0,0,0-.4-.056,6.147,6.147,0,0,0-3.834,5.726c0,3.108,1.011,4.678,1.58,5.315l-.566.566a.439.439,0,0,0-.127.269l-.7,7a2.124,2.124,0,1,0,4.237.211V.443A.438.438,0,0,0,19.211.082Z" transform="translate(-14.975 -0.001)"/></g></g></g></svg>