<svg xmlns="http://www.w3.org/2000/svg" width="78.032" height="66.974" viewBox="0 0 78.032 66.974"><defs><style>.a{fill:#75b02e;stroke:#fff;stroke-width:1.7px;}</style></defs><g transform="translate(0.864 -36.159)"><path class="a" d="M243.244,49.378a2.235,2.235,0,0,0,2.235-2.235v-7.9a2.235,2.235,0,1,0-4.471,0v7.9A2.235,2.235,0,0,0,243.244,49.378Z" transform="translate(-205.092)"/><path class="a" d="M137.646,91.809a2.235,2.235,0,0,0,3.161-3.161l-5.585-5.585a2.235,2.235,0,0,0-3.161,3.161Z" transform="translate(-111.823 -38.633)"/><path class="a" d="M315.355,92.462a2.227,2.227,0,0,0,1.581-.655l5.585-5.585a2.235,2.235,0,0,0-3.161-3.161l-5.585,5.585A2.238,2.238,0,0,0,315.355,92.462Z" transform="translate(-266.454 -38.632)"/><path class="a" d="M76.2,228.728,70.24,209.653a2.236,2.236,0,0,0-2.134-1.569H57.679l-5.471-17.507a2.235,2.235,0,0,0-2.134-1.569H26.23a2.235,2.235,0,0,0-2.134,1.569l-5.471,17.507H8.2a2.235,2.235,0,0,0-2.134,1.569L.1,228.728a2.236,2.236,0,0,0,2.134,2.9H74.068A2.236,2.236,0,0,0,76.2,228.728ZM27.874,193.48H48.431l4.564,14.6H23.31ZM38.152,221.9l-2.92-9.345h5.841ZM5.278,227.16l4.564-14.6H30.548l4.564,14.6Zm35.915,0,4.564-14.6H66.463l4.564,14.6Z" transform="translate(0 -129.348)"/></g></svg>