<svg xmlns="http://www.w3.org/2000/svg" xmlns:xlink="http://www.w3.org/1999/xlink" width="27.41" height="27.41" viewBox="0 0 27.41 27.41"><defs><style>.a{fill:#bccad3;}.b{clip-path:url(#a);}.c{fill:#5aa3bc;}.d{fill:#07485e;}</style><clipPath id="a"><circle class="a" cx="13.705" cy="13.705" r="13.705" transform="translate(83.086 225)"/></clipPath></defs><g class="b" transform="translate(-83.086 -225)"><g transform="translate(86.161 229.163)"><path class="c" d="M20.536,3.2H.722A.722.722,0,0,0,0,3.92V14.689a.722.722,0,0,0,.722.722H20.536a.722.722,0,0,0,.722-.722V3.92a.722.722,0,0,0-.722-.722Z" transform="translate(0)"/><path class="d" d="M15.628,19.63H13.176v-.969H9.825v.969H7.372a.627.627,0,1,0,0,1.253h8.256a.627.627,0,0,0,0-1.253Z" transform="translate(-0.871 -1.997)"/></g></g></svg>