<svg xmlns="http://www.w3.org/2000/svg" width="41.365" height="30.517" viewBox="0 0 41.365 30.517"><defs><style>.a{fill:#131f54;}</style></defs><path class="a" d="M334.786,153.511l-4.9-10.981a3.34,3.34,0,0,0-3.042-2.007l-4.5-.021a1.03,1.03,0,0,0-.331.055,1.1,1.1,0,0,0-.153.063,1.393,1.393,0,0,0-.452.371,1.222,1.222,0,0,0-.15.222h0v0L310.8,160.105l-7.724-17.733a3.059,3.059,0,0,0-2.8-1.837h-6.714c.057,0,.114.011.171.019a3.151,3.151,0,0,1,2.45,1.929l10.732,25.538,6.457-11.656,5.915,12.956a2.919,2.919,0,0,0,5.028.472l10.314-14.72A1.575,1.575,0,0,0,334.786,153.511Zm-7.725,11.609a2.086,2.086,0,0,1-2.566-1.42l-6.915-14.941,4.063-7.334v0h0a1.254,1.254,0,0,1,.2-.255.851.851,0,0,1,.219-.157.572.572,0,0,1,.118-.044l8.706,18.719Z" transform="translate(-293.556 -140.503)"/></svg>