<svg xmlns="http://www.w3.org/2000/svg" xmlns:xlink="http://www.w3.org/1999/xlink" width="33.41" height="33.41" viewBox="0 0 33.41 33.41"><defs><style>.a{fill:#bccad3;}.b{clip-path:url(#a);}.c{fill:#8a644a;}.d{fill:#fe9738;}.e{fill:#00abe9;}</style><clipPath id="a"><circle class="a" cx="16.705" cy="16.705" r="16.705" transform="translate(80.086 223.5)"/></clipPath></defs><g class="b" transform="translate(-80.086 -223.5)"><g transform="translate(85.638 229.052)"><path class="c" d="M21.178,4.251A2.719,2.719,0,1,1,18.46,1.532a2.719,2.719,0,0,1,2.719,2.719Zm0,0" transform="translate(-1.357 -0.132)"/><path class="d" d="M12.4,7.64l-1.29-1.935V2.4A2.4,2.4,0,0,0,8.7,0H2.4A2.4,2.4,0,0,0,0,2.4V6.253a2.4,2.4,0,0,0,2.4,2.4h9.449A.654.654,0,0,0,12.4,7.64ZM5.535,6.207H3.472A.666.666,0,0,1,2.8,5.584.653.653,0,0,1,3.453,4.9h2.1a.653.653,0,0,1,.653.684A.666.666,0,0,1,5.535,6.207Zm2.118-2.45H3.472A.666.666,0,0,1,2.8,3.135a.653.653,0,0,1,.653-.686H7.635a.666.666,0,0,1,.671.623.653.653,0,0,1-.653.684Zm0,0"/><path class="c" d="M5.075,17.743A5.128,5.128,0,0,0,0,22.89v.143a.8.8,0,0,0,.8.8H9.384a.8.8,0,0,0,.8-.8v-.2a5.092,5.092,0,0,0-5.111-5.093Zm0,0" transform="translate(0 -1.53)"/><path class="c" d="M8.477,13.931a3.207,3.207,0,1,1-3.207-3.207A3.207,3.207,0,0,1,8.477,13.931Zm0,0" transform="translate(-0.178 -0.925)"/><path class="c" d="M22.451,11.144H14.2a4.153,4.153,0,0,1,8.248,0Zm0,0" transform="translate(-1.225 -0.645)"/><path class="e" d="M22.458,12.968a.653.653,0,0,1,.653.653V21.37a.653.653,0,0,1-.685.653.666.666,0,0,1-.622-.671v-.728H12.04a6.427,6.427,0,0,0-2.694-3.589,4.508,4.508,0,0,0,.916-4.066Zm0,0" transform="translate(-0.806 -1.118)"/></g></g></svg>