<svg xmlns="http://www.w3.org/2000/svg" xmlns:xlink="http://www.w3.org/1999/xlink" width="18" height="18" viewBox="0 0 18 18">
  <defs>
    <clipPath id="clip-path">
      <rect id="Rectangle_276" data-name="Rectangle 276" width="18" height="18" transform="translate(4986 -11731)" fill="#262626" stroke="#262626" stroke-width="0.2"/>
    </clipPath>
  </defs>
  <g id="Near_location_icon" data-name="Near location icon" transform="translate(-4986 11731)" clip-path="url(#clip-path)">
    <g id="offer" transform="translate(4987.655 -11729.811)">
      <g id="Icons" transform="translate(0 0)">
        <g id="Group_345" data-name="Group 345">
          <path id="Path_4425" data-name="Path 4425" d="M9.025,47.235a2.847,2.847,0,0,0,.942-2.1,1.234,1.234,0,0,0-2.467,0,2.834,2.834,0,0,0,.942,2.1A.412.412,0,0,0,9.025,47.235Zm-.291-3.057a.961.961,0,0,1,.959.959,2.559,2.559,0,0,1-.862,1.9.137.137,0,0,1-.2,0,2.579,2.579,0,0,1-.862-1.9.961.961,0,0,1,.959-.959Z" transform="translate(-6.951 -32.827)" fill="#262626" stroke="#262626" stroke-width="0.2"/>
          <path id="Path_4426" data-name="Path 4426" d="M10.871,46.588a.685.685,0,1,0-.685.685A.686.686,0,0,0,10.871,46.588Zm-1.1,0a.411.411,0,1,1,.411.411A.412.412,0,0,1,9.774,46.588Z" transform="translate(-8.403 -34.279)" fill="#262626" stroke="#262626" stroke-width="0.2"/>
          <path id="Path_4427" data-name="Path 4427" d="M9.025,7.235a2.847,2.847,0,0,0,.942-2.1,1.234,1.234,0,0,0-2.467,0,2.834,2.834,0,0,0,.942,2.1A.412.412,0,0,0,9.025,7.235ZM8.734,4.177a.961.961,0,0,1,.959.959,2.559,2.559,0,0,1-.862,1.9.137.137,0,0,1-.2,0,2.579,2.579,0,0,1-.862-1.9A.961.961,0,0,1,8.734,4.177Z" transform="translate(-6.951 -3.793)" fill="#262626" stroke="#262626" stroke-width="0.2"/>
          <path id="Path_4428" data-name="Path 4428" d="M10.871,6.588a.685.685,0,1,0-.685.685A.686.686,0,0,0,10.871,6.588Zm-1.1,0A.411.411,0,1,1,10.185,7,.412.412,0,0,1,9.774,6.588Z" transform="translate(-8.403 -5.244)" fill="#262626" stroke="#262626" stroke-width="0.2"/>
          <path id="Path_4429" data-name="Path 4429" d="M49.025,47.235a2.847,2.847,0,0,0,.942-2.1,1.234,1.234,0,0,0-2.467,0,2.834,2.834,0,0,0,.942,2.1.413.413,0,0,0,.583,0Zm-.389-.193a2.578,2.578,0,0,1-.862-1.9.959.959,0,1,1,1.919,0,2.559,2.559,0,0,1-.862,1.9A.137.137,0,0,1,48.636,47.043Z" transform="translate(-35.985 -32.828)" fill="#262626" stroke="#262626" stroke-width="0.2"/>
          <path id="Path_4430" data-name="Path 4430" d="M50.185,45.9a.685.685,0,1,0,.685.685A.686.686,0,0,0,50.185,45.9Zm0,1.1a.411.411,0,1,1,.411-.411A.412.412,0,0,1,50.185,47Z" transform="translate(-37.437 -34.279)" fill="#262626" stroke="#262626" stroke-width="0.2"/>
          <path id="Path_4431" data-name="Path 4431" d="M25.83,19.708a2.333,2.333,0,0,0-2.33,2.33,5.665,5.665,0,0,0,2.043,4.292.407.407,0,0,0,.575,0,5.639,5.639,0,0,0,2.042-4.29A2.333,2.333,0,0,0,25.83,19.708Zm.095,6.426a.135.135,0,0,1-.191,0,5.424,5.424,0,0,1-1.96-4.1,2.056,2.056,0,1,1,4.112,0A5.4,5.4,0,0,1,25.925,26.134Z" transform="translate(-18.565 -15.265)" fill="#262626" stroke="#262626" stroke-width="0.2"/>
          <path id="Path_4432" data-name="Path 4432" d="M28.734,23.277a1.234,1.234,0,1,0,1.234,1.234A1.235,1.235,0,0,0,28.734,23.277Zm0,2.193a.959.959,0,1,1,.959-.959A.961.961,0,0,1,28.734,25.47Z" transform="translate(-21.468 -17.855)" fill="#262626" stroke="#262626" stroke-width="0.2"/>
          <path id="Path_4433" data-name="Path 4433" d="M49.025,6.832h0a2.846,2.846,0,0,0,.942-2.1,1.234,1.234,0,1,0-2.467,0,2.834,2.834,0,0,0,.942,2.1A.413.413,0,0,0,49.025,6.832Zm-.291-3.057a.961.961,0,0,1,.959.959,2.558,2.558,0,0,1-.862,1.9.137.137,0,0,1-.2,0,2.579,2.579,0,0,1-.862-1.9A.961.961,0,0,1,48.734,3.774Z" transform="translate(-35.985 -3.5)" fill="#262626" stroke="#262626" stroke-width="0.2"/>
          <path id="Path_4434" data-name="Path 4434" d="M50.871,6.185a.685.685,0,1,0-.685.685A.686.686,0,0,0,50.871,6.185Zm-1.1,0a.411.411,0,1,1,.411.411A.412.412,0,0,1,49.774,6.185Z" transform="translate(-37.437 -4.952)" fill="#262626" stroke="#262626" stroke-width="0.2"/>
          <path id="Path_4435" data-name="Path 4435" d="M39.286,40.16H40a.412.412,0,0,0,.411-.411v-.71a.411.411,0,0,0-.7-.289l-.062.062-1.049-1.046-.194.194L39.546,39.1a.137.137,0,0,0,.194,0l.159-.159a.137.137,0,0,1,.235.1v.71a.137.137,0,0,1-.137.137h-.71a.137.137,0,0,1-.1-.235l.159-.159a.137.137,0,0,0,0-.194L38.3,38.246l-.194.194.953.956L39,39.457a.411.411,0,0,0,.289.7Z" transform="translate(-29.167 -28.372)" fill="#262626" stroke="#262626" stroke-width="0.2"/>
          <path id="Path_4436" data-name="Path 4436" d="M17.5,18.621a.411.411,0,0,0,.7.289l.062-.062.6.6.194-.194-.694-.694a.137.137,0,0,0-.194,0l-.159.159a.137.137,0,0,1-.235-.1v-.71a.137.137,0,0,1,.137-.137h.71a.137.137,0,0,1,.1.235l-.159.159a.137.137,0,0,0,0,.194l.587.587.194-.194-.49-.49.062-.062a.411.411,0,0,0-.289-.7h-.71a.412.412,0,0,0-.411.411Z" transform="translate(-14.209 -13.661)" fill="#262626" stroke="#262626" stroke-width="0.2"/>
          <path id="Path_4437" data-name="Path 4437" d="M17.5,39.749a.412.412,0,0,0,.411.411h.71a.411.411,0,0,0,.289-.7l-.063-.062.948-.95-.194-.194L18.557,39.3a.137.137,0,0,0,0,.194l.159.159a.137.137,0,0,1-.1.235h-.71a.137.137,0,0,1-.137-.137v-.71a.137.137,0,0,1,.235-.1l.159.159a.137.137,0,0,0,.194,0L19.5,37.96l-.194-.194-1.046,1.046L18.2,38.75a.411.411,0,0,0-.7.289Z" transform="translate(-14.209 -28.372)" fill="#262626" stroke="#262626" stroke-width="0.2"/>
          <path id="Path_4438" data-name="Path 4438" d="M41.635,17.911a.412.412,0,0,0-.411-.411h-.71a.411.411,0,0,0-.289.7l.062.062-.49.49.194.194.587-.587a.137.137,0,0,0,0-.194l-.159-.159a.137.137,0,0,1,.1-.235h.71a.137.137,0,0,1,.137.137v.71a.137.137,0,0,1-.235.1l-.159-.159a.137.137,0,0,0-.194,0l-.694.694.194.194.6-.6.062.062a.411.411,0,0,0,.7-.289v-.71Z" transform="translate(-30.394 -13.662)" fill="#262626" stroke="#262626" stroke-width="0.2"/>
          <path id="Path_4439" data-name="Path 4439" d="M6.235,24.489l.246-.12A7,7,0,0,1,6.952,17.4l-.228-.152A7.275,7.275,0,0,0,6.235,24.489Z" transform="translate(-5.497 -13.482)" fill="#262626" stroke="#262626" stroke-width="0.2"/>
          <path id="Path_4440" data-name="Path 4440" d="M53.224,16.965,53,17.121a6.99,6.99,0,0,1,.524,7.039l.246.12A7.263,7.263,0,0,0,53.224,16.965Z" transform="translate(-39.977 -13.274)" fill="#262626" stroke="#262626" stroke-width="0.2"/>
          <path id="Path_4441" data-name="Path 4441" d="M16.69,53.026a7.253,7.253,0,0,0,8.4,0l-.159-.223a6.979,6.979,0,0,1-8.079,0Z" transform="translate(-13.622 -39.287)" fill="#262626" stroke="#262626" stroke-width="0.2"/>
          <path id="Path_4442" data-name="Path 4442" d="M17.6,6.667l.149.23a6.98,6.98,0,0,1,7.622.016l.15-.229A7.254,7.254,0,0,0,17.6,6.667Z" transform="translate(-14.281 -4.951)" fill="#262626" stroke="#262626" stroke-width="0.2"/>
        </g>
      </g>
    </g>
  </g>
</svg>
