<svg xmlns="http://www.w3.org/2000/svg" width="23.868" height="23.014" viewBox="0 0 23.868 23.014"><g transform="translate(-114.118 -0.346)"><path d="M115.195,15.469v.022a3.8,3.8,0,0,0,2.167,3.622l.014.007a2.553,2.553,0,0,1,1.156,1.112l.006.011a3.967,3.967,0,0,0,3.729,2.081h.024a2.715,2.715,0,0,1,1.605.417,4.07,4.07,0,0,0,4.316,0,2.715,2.715,0,0,1,1.605-.417h.024a3.969,3.969,0,0,0,3.729-2.083l0-.007a2.557,2.557,0,0,1,1.16-1.114l.012-.006a3.8,3.8,0,0,0,2.167-3.622V15.47a2.429,2.429,0,0,1,.423-1.506,3.736,3.736,0,0,0,0-4.224,2.429,2.429,0,0,1-.423-1.5V8.213a3.8,3.8,0,0,0-2.168-3.623l-.013-.006a2.55,2.55,0,0,1-1.154-1.108l-.007-.014a3.97,3.97,0,0,0-3.728-2.081h-.024a2.713,2.713,0,0,1-1.6-.417h0a4.07,4.07,0,0,0-4.316,0,2.717,2.717,0,0,1-1.605.417h-.024a3.968,3.968,0,0,0-3.728,2.08l-.005.01a2.554,2.554,0,0,1-1.157,1.114l-.013.006a3.8,3.8,0,0,0-2.167,3.622v.021a2.428,2.428,0,0,1-.423,1.505,3.735,3.735,0,0,0,0,4.225,2.427,2.427,0,0,1,.422,1.505Zm.656-4.986A3.745,3.745,0,0,0,116.5,8.16V8.138a2.49,2.49,0,0,1,1.43-2.368l.011-.005a3.856,3.856,0,0,0,1.747-1.681l.006-.012a2.656,2.656,0,0,1,2.5-1.382h.023a4.013,4.013,0,0,0,2.374-.617,2.753,2.753,0,0,1,2.92,0,4.022,4.022,0,0,0,2.373.617h.023a2.652,2.652,0,0,1,2.5,1.379l.009.016a3.856,3.856,0,0,0,1.745,1.679l.011.005A2.491,2.491,0,0,1,135.6,8.138v.023a3.744,3.744,0,0,0,.653,2.323,2.419,2.419,0,0,1,0,2.737,3.748,3.748,0,0,0-.652,2.323v.022a2.491,2.491,0,0,1-1.432,2.37l-.01,0a3.861,3.861,0,0,0-1.748,1.684l0,.01a2.655,2.655,0,0,1-2.5,1.382h-.023a4.02,4.02,0,0,0-2.374.617,2.753,2.753,0,0,1-2.919,0,4.014,4.014,0,0,0-2.152-.623q-.111,0-.222.006H122.2a2.653,2.653,0,0,1-2.5-1.383l-.007-.012a3.852,3.852,0,0,0-1.744-1.679l-.012-.006a2.49,2.49,0,0,1-1.432-2.369v-.023a3.747,3.747,0,0,0-.653-2.323,2.419,2.419,0,0,1,0-2.736Zm0,0" transform="translate(0 0)"/><path d="M204.812,70.572a.655.655,0,0,0,.9-.209l7.759-12.429a.655.655,0,1,0-1.111-.694L204.6,69.669a.655.655,0,0,0,.209.9Zm0,0" transform="translate(-82.987 -51.949)"/><path d="M184.326,67.315a3.327,3.327,0,1,0-2.892-3.3A3.119,3.119,0,0,0,184.326,67.315Zm0-5.287a2.04,2.04,0,1,1-1.582,1.988A1.823,1.823,0,0,1,184.326,62.029Zm0,0" transform="translate(-61.805 -55.431)"/><path d="M267.684,143.814a2.917,2.917,0,1,0,2.893-3.3A3.119,3.119,0,0,0,267.684,143.814Zm4.475,0a1.624,1.624,0,1,1-1.583-1.988A1.823,1.823,0,0,1,272.159,143.814Zm0,0" transform="translate(-140.994 -128.695)"/></g></svg>