<svg xmlns="http://www.w3.org/2000/svg" xmlns:xlink="http://www.w3.org/1999/xlink" width="36.932" height="36.932" viewBox="0 0 36.932 36.932"><defs><style>.a{fill:#bccad3;}.b{clip-path:url(#a);}.c{fill:#db4839;}.d{fill:#3b97d3;}</style><clipPath id="a"><circle class="a" cx="18.466" cy="18.466" r="18.466" transform="translate(80.086 223.5)"/></clipPath></defs><g class="b" transform="translate(-80.086 -223.5)"><g transform="translate(85.438 232.46)"><path class="c" d="M18.6,85.727a.974.974,0,0,0-.258.036l-.979.27-1.016-2.476a2.219,2.219,0,0,0-1.9-1.272H4.936a2.218,2.218,0,0,0-1.9,1.272L2.023,86.029l-.967-.266A.974.974,0,0,0,.8,85.727a.793.793,0,0,0-.8.84v.577a1.032,1.032,0,0,0,1.031,1.031h.111l-.164.4a7.732,7.732,0,0,0-.485,2.46v4.919a1.032,1.032,0,0,0,1.031,1.031H2.87A1.032,1.032,0,0,0,3.9,95.954V94.726H15.484v1.228a1.032,1.032,0,0,0,1.031,1.031h1.346a1.032,1.032,0,0,0,1.031-1.031V91.035a7.733,7.733,0,0,0-.485-2.46l-.164-.4h.125A1.032,1.032,0,0,0,19.4,87.144v-.577A.793.793,0,0,0,18.6,85.727ZM2.762,87.615,4.3,83.87a1.333,1.333,0,0,1,1.138-.763h8.509a1.333,1.333,0,0,1,1.138.763l1.538,3.745a.515.515,0,0,1-.512.763H3.274A.515.515,0,0,1,2.762,87.615Zm3.433,4.738a.414.414,0,0,1-.412.412H2.861a.414.414,0,0,1-.412-.412v-1.4a.414.414,0,0,1,.412-.412H5.782a.414.414,0,0,1,.412.412Zm10.713,0a.414.414,0,0,1-.412.412H13.575a.414.414,0,0,1-.412-.412v-1.4a.414.414,0,0,1,.412-.412H16.5a.414.414,0,0,1,.412.412Z" transform="translate(0 -77.973)"/><g transform="translate(18.766 0)"><path class="d" d="M201.164,37.486h-4.883a1.291,1.291,0,0,0-1.289,1.289v4.883a1.291,1.291,0,0,0,1.289,1.29h1.96V55.907a.481.481,0,1,0,.962,0V44.948h1.96a1.291,1.291,0,0,0,1.289-1.29V38.776A1.291,1.291,0,0,0,201.164,37.486Zm-1.106,4.049a1.787,1.787,0,0,1-1.229.381h-.707a.154.154,0,0,0-.154.154v1.192a.235.235,0,0,1-.235.235H197.2a.235.235,0,0,1-.235-.235v-4.09a.235.235,0,0,1,.235-.235h1.349a2.064,2.064,0,0,1,1.5.367,1.389,1.389,0,0,1,.436,1.117A1.428,1.428,0,0,1,200.058,41.535Z" transform="translate(-194.992 -37.486)"/><path class="d" d="M227.238,61.43a1.184,1.184,0,0,0-.686-.149h-.485a.154.154,0,0,0-.154.154v.98a.154.154,0,0,0,.154.154h.291c.107,0,.279-.008.384-.018a1.316,1.316,0,0,0,.5-.131.737.737,0,0,0,0-.991Z" transform="translate(-222.937 -58.991)"/></g></g></g></svg>