<svg xmlns="http://www.w3.org/2000/svg" width="56.891" height="66.319" viewBox="0 0 56.891 66.319"><defs><style>.a{fill:#75b02e;}</style></defs><g transform="translate(-36.395)"><path class="a" d="M91.55,108.669a1.983,1.983,0,0,0-1.713-.989H56.163a1.983,1.983,0,0,0-1.713.989l-2.4,4.162a.973.973,0,1,0,1.685.973l1.851-3.205,7.024,12.165H48.56l5.177-8.939a.973.973,0,0,0-1.685-.973l-5.8,10.02a1.573,1.573,0,0,0,.189,1.838l25.359,28.4a1.578,1.578,0,0,0,1.175.526h0a1.578,1.578,0,0,0,1.175-.525l25.41-28.4a1.573,1.573,0,0,0,.19-1.839Zm-6.5,14.095H65.976L73,110.6l7.024,12.165h-.084a.973.973,0,1,0,0,1.946h.468l-7.431,25.222L65.59,124.709H85.052a.973.973,0,0,0,0-1.946Zm-3.344-.973-7.024-12.165H88.732Zm.728,2.918H96.95L75.309,148.9Zm15-1.946H83.393L90.417,110.6ZM57.268,109.626H71.315l-7.024,12.165Zm6.295,15.084L70.648,148.9l-21.6-24.193Z" transform="translate(-8.394 -93.732)"/><path class="a" d="M347.073,382.411a.974.974,0,0,0-.146-.08,9.5,9.5,0,0,1-1.693-.959.973.973,0,1,0-1.134,1.581,10.79,10.79,0,0,0,.939.6,9.091,9.091,0,0,0-4.272,5.04,9.092,9.092,0,0,0-4.271-5.039,9.09,9.09,0,0,0,4.271-5.039l.03.088a.973.973,0,1,0,1.837-.64c-.074-.212-.139-.432-.193-.655l-.4-1.652a1.307,1.307,0,0,0-2.54,0l-.4,1.652a7.486,7.486,0,0,1-4.486,5.022.972.972,0,0,0-.146.08,1.375,1.375,0,0,0,0,2.288.968.968,0,0,0,.146.08,7.486,7.486,0,0,1,4.486,5.022l.4,1.652a1.307,1.307,0,0,0,2.54,0l.4-1.652a7.486,7.486,0,0,1,4.486-5.022.982.982,0,0,0,.146-.08,1.375,1.375,0,0,0,0-2.288Z" transform="translate(-258.924 -326.131)"/><path class="a" d="M421.717,76.85a.964.964,0,0,0-.146-.08,3.229,3.229,0,0,1-1.988-2.206l-.2-.833h0a1.139,1.139,0,0,0-1.109-.87h0a1.139,1.139,0,0,0-1.108.87l-.2.833a3.229,3.229,0,0,1-1.988,2.206.97.97,0,0,0-.146.08,1.175,1.175,0,0,0,0,1.956.971.971,0,0,0,.146.08,3.228,3.228,0,0,1,1.988,2.206l.2.833a1.139,1.139,0,0,0,1.109.87h0a1.139,1.139,0,0,0,1.109-.87l.2-.833a3.229,3.229,0,0,1,1.988-2.206.966.966,0,0,0,.146-.08,1.175,1.175,0,0,0,0-1.956Zm-3.447,2.377a5.025,5.025,0,0,0-1.276-1.4,5.022,5.022,0,0,0,1.276-1.4,5.024,5.024,0,0,0,1.276,1.4A5.02,5.02,0,0,0,418.27,79.227Z" transform="translate(-328.955 -63.423)"/><path class="a" d="M40.19,11.269l.292,1.193a1.214,1.214,0,0,0,2.359,0l.292-1.193A5.146,5.146,0,0,1,46.22,7.825a.963.963,0,0,0,.146-.08,1.263,1.263,0,0,0,0-2.1.966.966,0,0,0-.146-.08,5.145,5.145,0,0,1-3.087-3.444L42.841.926a1.214,1.214,0,0,0-2.359,0L40.19,2.119A5.145,5.145,0,0,1,37.1,5.563a.964.964,0,0,0-.146.08,1.263,1.263,0,0,0,0,2.1.979.979,0,0,0,.146.08,5.145,5.145,0,0,1,3.087,3.444ZM41.662,3.79a6.809,6.809,0,0,0,2.563,2.9,6.81,6.81,0,0,0-2.563,2.9,6.811,6.811,0,0,0-2.563-2.9A6.81,6.81,0,0,0,41.662,3.79Z" transform="translate(0 0)"/></g></svg>