<svg xmlns="http://www.w3.org/2000/svg" xmlns:xlink="http://www.w3.org/1999/xlink" width="25.483" height="25.483" viewBox="0 0 25.483 25.483"><defs><style>.a{fill:#bccad3;}.b{clip-path:url(#a);}.c{fill:#6ab1ee;}.d{fill:#575b6d;}</style><clipPath id="a"><circle class="a" cx="12.742" cy="12.742" r="12.742" transform="translate(84.586 228)"/></clipPath></defs><g class="b" transform="translate(-84.586 -228)"><g transform="translate(84.586 234.362)"><g transform="translate(0 0)"><circle class="c" cx="2.548" cy="2.548" r="2.548" transform="translate(16.819 2.548)"/><path class="d" d="M22.609,7.289a4.994,4.994,0,0,0-6.46-.019H3.057A3.067,3.067,0,0,0,0,10.328v4.077a3.067,3.067,0,0,0,3.057,3.058v.881a.511.511,0,0,0,.51.51H5.253a.511.511,0,0,0,.51-.51v-.881H19.72v.881a.511.511,0,0,0,.51.51h1.686a.511.511,0,0,0,.51-.51v-.881a3.067,3.067,0,0,0,3.057-3.058V10.328A3.059,3.059,0,0,0,22.609,7.289ZM3.574,14.405c0,.281-.388.51-.862.51s-.861-.229-.861-.51V10.328c0-.28.389-.51.861-.51s.862.229.862.51Zm2.715,0c0,.281-.386.51-.86.51s-.861-.229-.861-.51V10.328c0-.28.388-.51.861-.51s.86.229.86.51Zm2.717,0c0,.281-.389.51-.861.51s-.862-.229-.862-.51V10.328c0-.28.388-.51.862-.51s.861.229.861.51Zm10.362.353a3.568,3.568,0,1,1,3.568-3.568A3.569,3.569,0,0,1,19.368,14.758Z" transform="translate(0 -6.095)"/></g></g></g></svg>