<svg xmlns="http://www.w3.org/2000/svg" width="18.335" height="21.962" viewBox="0 0 18.335 21.962"><defs><style>.a{stroke:#000;stroke-width:0.2px;}</style></defs><g transform="translate(-1.9 0.1)"><path class="a" d="M17.868,21.762H4.267A2.27,2.27,0,0,1,2,19.5V2.267A2.27,2.27,0,0,1,4.267,0h13.6a2.27,2.27,0,0,1,2.267,2.267V19.5A2.27,2.27,0,0,1,17.868,21.762ZM4.267.907a1.362,1.362,0,0,0-1.36,1.36V19.5a1.362,1.362,0,0,0,1.36,1.36h13.6a1.362,1.362,0,0,0,1.36-1.36V2.267a1.362,1.362,0,0,0-1.36-1.36Z"/><path class="a" d="M18.267,11.907H16.453a.453.453,0,1,1,0-.907h1.813a.453.453,0,1,1,0,.907Z" transform="translate(-1.306 -1.026)"/><path class="a" d="M18.267,8.907H16.453a.453.453,0,1,1,0-.907h1.813a.453.453,0,1,1,0,.907Z" transform="translate(-1.306 -0.746)"/><path class="a" d="M18.267,14.907H16.453a.453.453,0,1,1,0-.907h1.813a.453.453,0,1,1,0,.907Z" transform="translate(-1.306 -1.306)"/><path class="a" d="M18.267,17.907H16.453a.453.453,0,1,1,0-.907h1.813a.453.453,0,1,1,0,.907Z" transform="translate(-1.306 -1.585)"/><path class="a" d="M17.241,20.907H5.453a.453.453,0,1,1,0-.907H17.241a.453.453,0,1,1,0,.907Z" transform="translate(-0.28 -1.865)"/><path class="a" d="M9.534,17.067a4.534,4.534,0,1,1,4.534-4.534A4.539,4.539,0,0,1,9.534,17.067Zm0-8.161a3.627,3.627,0,1,0,3.627,3.627A3.631,3.631,0,0,0,9.534,8.907Z" transform="translate(-0.28 -0.746)"/><path class="a" d="M6.771,15.872A.453.453,0,0,1,6.45,15.1L9.2,12.346V8.453a.453.453,0,1,1,.907,0v4.08a.457.457,0,0,1-.132.321L7.092,15.74A.455.455,0,0,1,6.771,15.872Z" transform="translate(-0.403 -0.746)"/></g></svg>