<svg xmlns="http://www.w3.org/2000/svg" width="60.158" height="59.205" viewBox="0 0 60.158 59.205"><defs><style>.a{fill:#75b02e;stroke:#fff;stroke-width:0.5px;}</style></defs><g transform="translate(-23.564 -27.266)"><g transform="translate(23.814 27.516)"><path class="a" d="M74.753,55.561l4.46,1.249a1.284,1.284,0,0,0,.744-.016L104.184,48.9a12.964,12.964,0,0,0,7.085,4.061c1.2,5.273,4.5,7.5,7.634,7.5a6.046,6.046,0,0,0,2.112-.373c3.375-1.259,4.638-5.946,2.877-10.671-.1-.256-.2-.5-.307-.737A12.849,12.849,0,1,0,101,39.129l-1.017.332a1.285,1.285,0,0,0-.611.426l-2.338,2.965L93.4,41.833a1.285,1.285,0,0,0-1.355.441L89.7,45.239l-3.636-1.018a1.285,1.285,0,0,0-1.355.442L82.5,47.472,80.2,46.3a1.285,1.285,0,0,0-.98-.076l-2.443.8a1.285,1.285,0,0,0-.818.807l-2.072,6.08a1.284,1.284,0,0,0,.87,1.651Zm45.363,2.118a3.908,3.908,0,0,1-3.266-.344,6.632,6.632,0,0,1-2.863-4.124,12.894,12.894,0,0,0,7.592-2.626C122.664,53.761,122.02,56.969,120.117,57.679ZM78.181,49.266l1.326-.432,2.765,1.406a1.284,1.284,0,0,0,1.591-.35L86.2,46.926l3.636,1.018a1.285,1.285,0,0,0,1.355-.442l2.338-2.964,3.636,1.018a1.285,1.285,0,0,0,1.355-.442l2.628-3.332,1.478-.482a1.285,1.285,0,0,0,.886-1.19,10.279,10.279,0,1,1,18.628,6.247,9.734,9.734,0,0,0-4.244-2.91,5.136,5.136,0,1,0-2.97,1.928,7.786,7.786,0,0,1,5.444,2.887,10.28,10.28,0,0,1-14.736-1.637,1.285,1.285,0,0,0-1.417-.439L79.532,54.231l-2.778-.778Zm35.607-6.33a2.57,2.57,0,1,1,2.444-3.366A2.732,2.732,0,0,1,113.787,42.936Z" transform="translate(-67.392 -27.516)"/><path class="a" d="M83.457,285.134a4.159,4.159,0,0,0-3.067-3.317,6.938,6.938,0,0,0-2.931.065,3.956,3.956,0,0,0-1.246.256c-11.455,2.984-15.75,3.611-17.336,3.611a2.154,2.154,0,0,1-.487-.035c-2.195-.709-5.261-1.353-6.287-2.168a6.67,6.67,0,0,1,2.542.315,14.841,14.841,0,0,0,4.325.6c3.913,0,7.707-1.265,9.44-3.147a3.937,3.937,0,0,0,1.132-3.024,2.693,2.693,0,0,0-2.382-2.437c-2.939-.71-8.741.5-12.124-2.457a18.188,18.188,0,0,0-12.267-4.71,21.23,21.23,0,0,0-7.582,1.447,3.8,3.8,0,0,0-3.6-2.612H27.6a3.794,3.794,0,0,0-3.79,3.79v16.829a3.794,3.794,0,0,0,3.79,3.79h3.982a3.8,3.8,0,0,0,3.6-2.6l9.932,4.344a21.177,21.177,0,0,0,9.087,1.725c11.041,0,24.459-5.357,26.1-6.166C83.1,287.853,83.56,286.243,83.457,285.134Zm-50.651,3a1.222,1.222,0,0,1-1.22,1.22H27.6a1.222,1.222,0,0,1-1.22-1.22V271.308a1.222,1.222,0,0,1,1.22-1.22h3.982a1.222,1.222,0,0,1,1.22,1.22v16.829Zm46.366-1.217c-1.573.774-14.413,5.9-24.968,5.9a18.66,18.66,0,0,1-8-1.482c-.042-.02.71.31-10.831-4.739V272.834a18.671,18.671,0,0,1,7.394-1.582,15.688,15.688,0,0,1,10.575,4.074c3.013,2.636,7.2,2.732,10.251,2.8,1.2.027,2.992.069,3.387.371a1.342,1.342,0,0,1-.462,1.07c-1.237,1.343-4.412,2.318-7.55,2.318a12.46,12.46,0,0,1-3.575-.484,9.887,9.887,0,0,0-2.831-.454c-1.826,0-2.621.689-2.966,1.266a2.3,2.3,0,0,0,.07,2.37c1.077,2,4.664,2.518,7.933,3.573a4.152,4.152,0,0,0,1.277.159c3.934,0,14.827-2.888,18.634-3.863.847-.063,1.435-.216,1.82-.216a1.3,1.3,0,0,1,.365.051c.51.143,1.165.669,1.2,1.079.029.309-.406.9-1.726,1.55Z" transform="translate(-23.814 -236.686)"/></g></g></svg>