<svg xmlns="http://www.w3.org/2000/svg" width="55.222" height="56.3" viewBox="0 0 55.222 56.3"><defs><style>.a{fill:#75b02e;stroke:#fff;stroke-width:1.3px;}</style></defs><g transform="translate(0.15 0.65)"><g transform="translate(0.5)"><path class="a" d="M44.716,35.588A9.622,9.622,0,0,0,40.422,36.6a13.984,13.984,0,0,0-8.15-18.479,9.706,9.706,0,1,0-9.624,0A13.984,13.984,0,0,0,14.5,36.6a9.763,9.763,0,1,0,5.095,6.268,13.982,13.982,0,0,0,15.734,0,9.7,9.7,0,1,0,9.388-7.283ZM27.461,4.314a5.392,5.392,0,1,1-5.392,5.392A5.4,5.4,0,0,1,27.461,4.314ZM10.206,50.686A5.392,5.392,0,1,1,15.6,45.294,5.4,5.4,0,0,1,10.206,50.686ZM27.461,40.98a9.706,9.706,0,1,1,9.706-9.706A9.717,9.717,0,0,1,27.461,40.98Zm17.255,9.706a5.392,5.392,0,1,1,5.392-5.392A5.4,5.4,0,0,1,44.716,50.686Z" transform="translate(-0.5)"/></g></g></svg>