<svg xmlns="http://www.w3.org/2000/svg" width="18.043" height="19.841" viewBox="0 0 18.043 19.841">
  <g id="Slots" transform="translate(1.919 0.251)">
    <path id="Path_19196" data-name="Path 19196" d="M15.308,217.469H-1.1V202.844h-.567v15.191H15.875V204.214h-.567Zm0,0" transform="translate(-0.001 -198.696)" stroke="#000" stroke-width="0.5"/>
    <path id="Path_19197" data-name="Path 19197" d="M108.872,4.161l.461-.461V.46L108.872,0h-1.259l-.461.461V3.7l.461.461ZM107.719.695l.129-.129h.789l.129.129V3.466l-.129.129h-.789l-.129-.129Zm0,0" transform="translate(-105.533 0)" stroke="#000" stroke-width="0.5"/>
    <path id="Path_19198" data-name="Path 19198" d="M399.594,4.161l.461-.461V.46L399.594,0h-1.259l-.461.461V3.7l.461.461ZM398.441.695l.129-.129h.789l.129.129V3.466l-.129.129h-.789l-.129-.129Zm0,0" transform="translate(-387.469 0)" stroke="#000" stroke-width="0.5"/>
    <path id="Path_19199" data-name="Path 19199" d="M12.373,59.488v.567h2.935v3.029H-1.1V60.055H1.832v-.567h-3.5V63.65H15.874V59.488Zm0,0" transform="translate(0 -57.691)" stroke="#000" stroke-width="0.5"/>
    <path id="Path_19200" data-name="Path 19200" d="M191.93,59.488h7.03v.567h-7.03Zm0,0" transform="translate(-188.342 -57.691)" stroke="#000" stroke-width="0.5"/>
    <path id="Path_19201" data-name="Path 19201" d="M111.825,247.609l-4.706,4.705-1.964-1.964-2.277,2.277,4.241,4.241,6.983-6.983Zm-8.146,5.018,1.476-1.476,1.964,1.964,4.706-4.706,1.476,1.476-6.181,6.181Zm0,0" transform="translate(-101.388 -240.127)" stroke="#000" stroke-width="0.5"/>
  </g>
</svg>
