<svg xmlns="http://www.w3.org/2000/svg" width="20.274" height="15.883" viewBox="0 0 20.274 15.883"><defs><style>.a{stroke:#000;stroke-width:0.2px;}</style></defs><g transform="translate(0.1 0.1)"><path class="a" d="M20.074.372A.392.392,0,0,0,19.682,0H.392A.392.392,0,0,0,0,.372c0,.007,0,.013,0,.02v14.9a.392.392,0,0,0,.392.392h19.29a.392.392,0,0,0,.392-.392V.392c0-.007,0-.013,0-.02ZM.784.78H19.29V2.588H.784ZM19.29,14.9H.784V3.373H19.29Zm0,0"/><path class="a" d="M84.529,34.425H81.392a.392.392,0,0,1,0-.784h3.137a.392.392,0,0,1,0,.784Zm0,0" transform="translate(-77.824 -32.322)"/><path class="a" d="M41.408,34.425a.392.392,0,0,1,0-.784h0a.392.392,0,0,1,0,.784Zm0,0" transform="translate(-39.408 -32.322)"/><path class="a" d="M63.342,240.863H60.048a.392.392,0,0,1,0-.784h3.293a.392.392,0,0,1,0,.784Zm0,0" transform="translate(-57.317 -230.665)"/><path class="a" d="M63.342,281.062H60.048a.392.392,0,0,1,0-.784h3.293a.392.392,0,0,1,0,.784Zm0,0" transform="translate(-57.317 -269.288)"/><path class="a" d="M63.342,321.26H60.048a.392.392,0,0,1,0-.784h3.293a.392.392,0,0,1,0,.784Zm0,0" transform="translate(-57.317 -307.911)"/><path class="a" d="M65.538,129.359a1.882,1.882,0,1,1,1.882-1.882A1.884,1.884,0,0,1,65.538,129.359Zm0-2.981a1.1,1.1,0,1,0,1.1,1.1A1.1,1.1,0,0,0,65.538,126.378Zm0,0" transform="translate(-61.16 -120.669)"/><path class="a" d="M207.686,240.863h-3.293a.392.392,0,0,1,0-.784h3.293a.392.392,0,0,1,0,.784Zm0,0" transform="translate(-196.002 -230.665)"/><path class="a" d="M207.686,281.062h-3.293a.392.392,0,0,1,0-.784h3.293a.392.392,0,0,1,0,.784Zm0,0" transform="translate(-196.002 -269.288)"/><path class="a" d="M207.686,321.26h-3.293a.392.392,0,0,1,0-.784h3.293a.392.392,0,0,1,0,.784Zm0,0" transform="translate(-196.002 -307.911)"/><path class="a" d="M209.882,129.359a1.882,1.882,0,1,1,1.882-1.882A1.884,1.884,0,0,1,209.882,129.359Zm0-2.981a1.1,1.1,0,1,0,1.1,1.1A1.1,1.1,0,0,0,209.882,126.378Zm0,0" transform="translate(-199.845 -120.669)"/><path class="a" d="M352.116,240.863h-3.293a.392.392,0,0,1,0-.784h3.293a.392.392,0,0,1,0,.784Zm0,0" transform="translate(-334.769 -230.665)"/><path class="a" d="M352.116,281.062h-3.293a.392.392,0,0,1,0-.784h3.293a.392.392,0,0,1,0,.784Zm0,0" transform="translate(-334.769 -269.288)"/><path class="a" d="M352.116,321.26h-3.293a.392.392,0,0,1,0-.784h3.293a.392.392,0,0,1,0,.784Zm0,0" transform="translate(-334.769 -307.911)"/><path class="a" d="M354.312,129.359a1.882,1.882,0,1,1,1.882-1.882A1.884,1.884,0,0,1,354.312,129.359Zm0-2.981a1.1,1.1,0,1,0,1.1,1.1A1.1,1.1,0,0,0,354.312,126.378Zm0,0" transform="translate(-338.612 -120.669)"/></g></svg>