<svg xmlns="http://www.w3.org/2000/svg" width="54.524" height="61.733" viewBox="0 0 54.524 61.733"><defs><style>.a{fill:none;stroke:#75b02e;stroke-width:2.2px;}</style></defs><g transform="translate(-29.9 1.1)"><g transform="translate(41.465)"><path class="a" d="M136.7,0a15.7,15.7,0,1,0,15.7,15.7A15.715,15.715,0,0,0,136.7,0Z" transform="translate(-121)"/></g><g transform="translate(31 34.883)"><path class="a" d="M76.692,306.767A22.377,22.377,0,0,0,60.65,300H53.674a22.377,22.377,0,0,0-16.042,6.767A22.876,22.876,0,0,0,31,322.906a1.744,1.744,0,0,0,1.744,1.744H81.58a1.744,1.744,0,0,0,1.744-1.744A22.876,22.876,0,0,0,76.692,306.767Z" transform="translate(-31 -300)"/></g></g></svg>