<svg xmlns="http://www.w3.org/2000/svg" width="20.416" height="24.111" viewBox="0 0 20.416 24.111"><defs><style>.a{stroke:#ebebeb;stroke-width:0.5px;}</style></defs><g transform="translate(-39.75 0.254)"><path class="a" d="M59.347,3.822,50.312.071a.922.922,0,0,0-.707,0L40.568,3.822A.922.922,0,0,0,40,4.674V9.234a15.441,15.441,0,0,0,9.61,14.3.922.922,0,0,0,.7,0,15.441,15.441,0,0,0,9.61-14.3V4.674A.922.922,0,0,0,59.347,3.822ZM58.072,9.234a13.6,13.6,0,0,1-8.114,12.446A13.6,13.6,0,0,1,41.844,9.234V5.289L49.958,1.92l8.114,3.369Zm-9.133,3.108L52.9,8.379a.922.922,0,1,1,1.3,1.3L49.591,14.3a.922.922,0,0,1-1.3,0L45.71,11.721a.922.922,0,0,1,1.3-1.3Z" transform="translate(0 0)"/></g></svg>