<svg xmlns="http://www.w3.org/2000/svg" width="26.917" height="16.35" viewBox="0 0 26.917 16.35"><defs><style>.a{stroke:#000;stroke-width:0.5px;}</style></defs><g transform="translate(-1.75 -15.75)"><path class="a" d="M28.039,31.85H2.377A.377.377,0,0,1,2,31.473V27.623a.377.377,0,0,1,.3-.37,3.4,3.4,0,0,0,0-6.657.377.377,0,0,1-.3-.37V16.377A.377.377,0,0,1,2.377,16H28.039a.377.377,0,0,1,.377.377v3.849a.377.377,0,0,1-.3.37,3.4,3.4,0,0,0,0,6.657.377.377,0,0,1,.3.37v3.849A.377.377,0,0,1,28.039,31.85ZM2.755,31.1H27.662V27.92a4.151,4.151,0,0,1,0-7.989V16.755H2.755V19.93a4.151,4.151,0,0,1,0,7.989Z"/><path class="a" d="M51.377,18.127A.377.377,0,0,1,51,17.75V16.377a.377.377,0,0,1,.755,0V17.75A.377.377,0,0,1,51.377,18.127Z" transform="translate(-30.508)"/><path class="a" d="M51.377,27.218A.377.377,0,0,1,51,26.841V25.468a.377.377,0,0,1,.755,0v1.372A.377.377,0,0,1,51.377,27.218Z" transform="translate(-30.508 -5.66)"/><path class="a" d="M51.377,36.309A.377.377,0,0,1,51,35.932V34.559a.377.377,0,0,1,.755,0v1.373A.377.377,0,0,1,51.377,36.309Z" transform="translate(-30.508 -11.32)"/><path class="a" d="M51.377,45.4A.377.377,0,0,1,51,45.023V43.65a.377.377,0,1,1,.755,0v1.372A.377.377,0,0,1,51.377,45.4Z" transform="translate(-30.508 -16.981)"/><path class="a" d="M51.377,54.491A.377.377,0,0,1,51,54.114V52.741a.377.377,0,0,1,.755,0v1.372A.377.377,0,0,1,51.377,54.491Z" transform="translate(-30.508 -22.641)"/><path class="a" d="M20.307,34.752a.377.377,0,0,1-.267-.644l6.994-7a.377.377,0,1,1,.534.534l-6.994,7A.377.377,0,0,1,20.307,34.752Z" transform="translate(-11.163 -6.849)"/><path class="a" d="M33.505,42.267a1.743,1.743,0,1,1,1.743-1.743A1.743,1.743,0,0,1,33.505,42.267Zm0-2.732a.988.988,0,1,0,.988.989A.988.988,0,0,0,33.505,39.535Z" transform="translate(-18.53 -14.184)"/><path class="a" d="M20.743,29.405a1.743,1.743,0,1,1,1.743-1.743A1.743,1.743,0,0,1,20.743,29.405Zm0-2.732a.988.988,0,1,0,.988.988A.988.988,0,0,0,20.743,26.673Z" transform="translate(-10.585 -6.176)"/></g></svg>