<svg xmlns="http://www.w3.org/2000/svg" xmlns:xlink="http://www.w3.org/1999/xlink" width="24.41" height="24.41" viewBox="0 0 24.41 24.41"><defs><style>.a{fill:#bccad3;}.b{clip-path:url(#a);}.c{fill:#00abe9;}</style><clipPath id="a"><circle class="a" cx="12.205" cy="12.205" r="12.205" transform="translate(84.586 228)"/></clipPath></defs><g class="b" transform="translate(-84.586 -228)"><g transform="translate(84.586 228)"><path class="c" d="M8.876,17.507l3.329,3.329,3.329-3.329A4.711,4.711,0,0,0,8.876,17.507Z"/><path class="c" d="M4.438,13.068l2.219,2.219a7.849,7.849,0,0,1,11.1,0l2.219-2.219A10.986,10.986,0,0,0,4.438,13.068Z"/><path class="c" d="M0,8.63l2.219,2.219a14.123,14.123,0,0,1,19.972,0L24.41,8.63A17.261,17.261,0,0,0,0,8.63Z"/></g></g></svg>